<svg width="210" height="31" viewBox="0 0 210 31" fill="none" xmlns="http://www.w3.org/2000/svg">
<path d="M7.676 0.397997V12.165C7.676 12.6023 7.77167 12.9167 7.963 13.108C8.18167 13.2993 8.64633 13.395 9.357 13.395H12.391V17.29H7.184C5.626 17.29 4.36867 17.126 3.412 16.798C2.48267 16.47 1.78567 15.896 1.321 15.076C0.883667 14.2287 0.596667 13.3267 0.46 12.37C0.350667 11.4133 0.296 10.1287 0.296 8.516C0.296 6.876 0.350667 5.63233 0.46 4.785C0.596667 3.93767 0.883667 3.145 1.321 2.407C1.78567 1.669 2.48267 1.14967 3.412 0.848999C4.36867 0.548331 5.626 0.397997 7.184 0.397997H7.676ZM14.031 13.395H14.523C15.6983 13.395 16.6003 13.4223 17.229 13.477C17.885 13.5043 18.5137 13.6273 19.115 13.846C19.7163 14.0373 20.1263 14.2697 20.345 14.543C20.591 14.8163 20.8097 15.2947 21.001 15.978C21.2197 16.634 21.3427 17.3447 21.37 18.11C21.3973 18.8753 21.411 19.9687 21.411 21.39C21.411 22.8113 21.3973 23.9457 21.37 24.793C21.3427 25.613 21.2197 26.4057 21.001 27.171C20.8097 27.909 20.591 28.4283 20.345 28.729C20.1263 29.0297 19.7163 29.303 19.115 29.549C18.5137 29.7677 17.885 29.9043 17.229 29.959C16.6003 29.9863 15.6983 30 14.523 30H14.031V13.395ZM0.87 20.857H6.036C6.41867 20.857 6.651 20.9117 6.733 21.021C6.815 21.1303 6.856 21.3627 6.856 21.718V24.916C6.856 25.3533 6.91067 25.6677 7.02 25.859C7.15667 26.023 7.471 26.105 7.963 26.105H12.391V30H6.364C4.36867 30 2.85167 29.6583 1.813 28.975C0.801667 28.2917 0.296 27.1027 0.296 25.408V21.718C0.296 21.144 0.487333 20.857 0.87 20.857ZM9.316 0.356998H14.523C16.5183 0.356998 18.0217 0.698665 19.033 1.382C20.0717 2.06533 20.591 3.25433 20.591 4.949V8.639C20.591 9.213 20.3997 9.5 20.017 9.5H14.851C14.4683 9.5 14.236 9.44533 14.154 9.336C14.072 9.22667 14.031 8.99433 14.031 8.639V5.441C14.031 5.00367 13.9627 4.703 13.826 4.539C13.7167 4.34767 13.416 4.252 12.924 4.252H9.316V0.356998ZM33.056 30H28.751C27.8216 30 27.2066 29.8497 26.906 29.549C26.6326 29.2483 26.496 28.6197 26.496 27.663V1.997C26.496 1.505 26.6326 1.10867 26.906 0.807999C27.1793 0.507332 27.5346 0.356998 27.972 0.356998H33.056V30ZM34.696 0.356998H39.903C42.4996 0.356998 44.2216 0.971998 45.069 2.202C45.9436 3.40467 46.381 5.83733 46.381 9.5C46.381 11.9327 46.1076 13.8323 45.561 15.199C45.0416 16.5657 44.3446 17.4813 43.47 17.946C42.5953 18.3833 41.4063 18.602 39.903 18.602H34.696V14.707H37.73C38.4406 14.707 38.8916 14.6113 39.083 14.42C39.3016 14.2287 39.411 13.928 39.411 13.518V5.482C39.411 5.04467 39.3016 4.73033 39.083 4.539C38.8916 4.34767 38.4406 4.252 37.73 4.252H34.696V0.356998ZM57.6915 0.356998V24.916C57.6915 25.326 57.7872 25.6267 57.9785 25.818C58.1972 26.0093 58.6618 26.105 59.3725 26.105H62.4065V30H57.1995C56.1062 30 55.1905 29.918 54.4525 29.754C53.7418 29.59 53.1132 29.262 52.5665 28.77C52.0472 28.2507 51.6372 27.6767 51.3365 27.048C51.0632 26.4193 50.8445 25.4763 50.6805 24.219C50.4345 22.333 50.3115 19.8047 50.3115 16.634C50.3115 13.436 50.3252 11.181 50.3525 9.869C50.4072 8.557 50.5165 7.286 50.6805 6.056C50.8445 4.79866 51.0632 3.86933 51.3365 3.268C51.6372 2.63933 52.0472 2.079 52.5665 1.587C53.1132 1.06767 53.7418 0.739666 54.4525 0.603C55.1905 0.438999 56.1062 0.356998 57.1995 0.356998H57.6915ZM59.3315 0.397997H64.5385C65.6318 0.397997 66.5338 0.479998 67.2445 0.643999C67.9825 0.807999 68.6112 1.14967 69.1305 1.669C69.6772 2.161 70.0872 2.72133 70.3605 3.35C70.6612 3.97867 70.8935 4.92167 71.0575 6.179C71.3035 8.065 71.4265 10.607 71.4265 13.805C71.4265 16.9757 71.3992 19.217 71.3445 20.529C71.3172 21.841 71.2215 23.1257 71.0575 24.383C70.8935 25.613 70.6612 26.5423 70.3605 27.171C70.0872 27.7723 69.6772 28.3327 69.1305 28.852C68.6112 29.344 67.9825 29.672 67.2445 29.836C66.5338 29.9727 65.6318 30.041 64.5385 30.041H64.0465V5.482C64.0465 5.072 63.9372 4.77133 63.7185 4.58C63.5272 4.38867 63.0762 4.293 62.3655 4.293H59.3315V0.397997ZM74.6988 0.356998H87.5318C87.9692 0.356998 88.3245 0.507332 88.5978 0.807999C88.8712 1.10867 89.0078 1.505 89.0078 1.997V30H84.7028C83.7735 30 83.1585 29.8497 82.8578 29.549C82.5845 29.2483 82.4478 28.6197 82.4478 27.663V5.482H75.8878C75.0952 5.482 74.6988 4.826 74.6988 3.514V0.356998ZM90.6478 0.356998H97.2078C98.0005 0.356998 98.3968 1.013 98.3968 2.325V5.482H90.6478V0.356998ZM114.523 21.062H120.263C120.564 21.062 120.714 21.2533 120.714 21.636V28.852C120.714 29.6173 120.332 30 119.566 30H109.644V26.105H113.457C113.895 26.105 114.113 26.064 114.113 25.982C114.141 25.8727 114.154 25.7497 114.154 25.613V21.513C114.154 21.2943 114.182 21.1713 114.236 21.144C114.291 21.0893 114.387 21.062 114.523 21.062ZM108.209 30H103.904C102.975 30 102.36 29.8497 102.059 29.549C101.786 29.2483 101.649 28.6197 101.649 27.663V2.694C101.649 1.73733 101.786 1.10867 102.059 0.807999C102.36 0.507332 102.975 0.356998 103.904 0.356998H108.209V30ZM131.112 30H126.807C125.877 30 125.262 29.8497 124.962 29.549C124.688 29.2483 124.552 28.6197 124.552 27.663V2.694C124.552 1.73733 124.688 1.10867 124.962 0.807999C125.262 0.507332 125.877 0.356998 126.807 0.356998H131.112V30ZM144.016 0.356998V24.916C144.016 25.326 144.111 25.6267 144.303 25.818C144.521 26.0093 144.986 26.105 145.697 26.105H148.731V30H143.524C142.43 30 141.515 29.918 140.777 29.754C140.066 29.59 139.437 29.262 138.891 28.77C138.371 28.2507 137.961 27.6767 137.661 27.048C137.387 26.4193 137.169 25.4763 137.005 24.219C136.759 22.333 136.636 19.8047 136.636 16.634C136.636 13.436 136.649 11.181 136.677 9.869C136.731 8.557 136.841 7.286 137.005 6.056C137.169 4.79866 137.387 3.86933 137.661 3.268C137.961 2.63933 138.371 2.079 138.891 1.587C139.437 1.06767 140.066 0.739666 140.777 0.603C141.515 0.438999 142.43 0.356998 143.524 0.356998H144.016ZM145.656 13.846H152.872C155.55 13.846 156.89 15.076 156.89 17.536V26.064C156.89 27.7587 156.753 28.8383 156.48 29.303C156.234 29.7677 155.496 30 154.266 30H150.371V18.93C150.371 18.4927 150.302 18.192 150.166 18.028C150.056 17.8367 149.756 17.741 149.264 17.741H145.656V13.846ZM145.656 0.356998H150.863C152.858 0.356998 154.361 0.698665 155.373 1.382C156.411 2.06533 156.931 3.25433 156.931 4.949V8.639C156.931 9.213 156.739 9.5 156.357 9.5H151.191C150.808 9.5 150.576 9.44533 150.494 9.336C150.412 9.22667 150.371 8.99433 150.371 8.639V5.441C150.371 5.00367 150.302 4.703 150.166 4.539C150.056 4.34767 149.756 4.252 149.264 4.252H145.656V0.356998ZM173.419 16.265H168.909V30H164.604C163.674 30 163.059 29.8497 162.759 29.549C162.485 29.2483 162.349 28.6197 162.349 27.663V0.356998H167.433C167.87 0.356998 168.225 0.507332 168.499 0.807999C168.772 1.10867 168.909 1.505 168.909 1.997V12.37H173.419V16.265ZM175.059 0.356998H179.364C180.293 0.356998 180.894 0.507332 181.168 0.807999C181.468 1.10867 181.619 1.73733 181.619 2.694V30H176.535C176.097 30 175.742 29.8497 175.469 29.549C175.195 29.2483 175.059 28.852 175.059 28.36V0.356998ZM185.607 0.356998H198.44C198.877 0.356998 199.233 0.507332 199.506 0.807999C199.779 1.10867 199.916 1.505 199.916 1.997V30H195.611C194.682 30 194.067 29.8497 193.766 29.549C193.493 29.2483 193.356 28.6197 193.356 27.663V5.482H186.796C186.003 5.482 185.607 4.826 185.607 3.514V0.356998ZM201.556 0.356998H208.116C208.909 0.356998 209.305 1.013 209.305 2.325V5.482H201.556V0.356998Z" fill="white"/>
</svg>
